<?xml version="1.0" encoding="UTF-8" standalone="no"?>
<!-- Created with Inkscape (http://www.inkscape.org/) -->

<svg
   version="1.1"
   id="svg350"
   width="1008.1939"
   height="1008.194"
   viewBox="0 0 1008.1939 1008.1942"
   sodipodi:docname="germanjavier-isotipo.svg"
   inkscape:export-filename="germanjavier-isotipo.png"
   inkscape:export-xdpi="96"
   inkscape:export-ydpi="96"
   xmlns:inkscape="http://www.inkscape.org/namespaces/inkscape"
   xmlns:sodipodi="http://sodipodi.sourceforge.net/DTD/sodipodi-0.dtd"
   xmlns="http://www.w3.org/2000/svg"
   xmlns:svg="http://www.w3.org/2000/svg">
  <defs
     id="defs354" />
  <sodipodi:namedview
     id="namedview352"
     pagecolor="#ffffff"
     bordercolor="#999999"
     borderopacity="1"
     inkscape:showpageshadow="0"
     inkscape:pageopacity="0"
     inkscape:pagecheckerboard="0"
     inkscape:deskcolor="#d1d1d1"
     showgrid="false" />
  <g
     inkscape:groupmode="layer"
     inkscape:label="Image"
     id="g356"
     transform="translate(-18.191719,-14.912232)">
    <g
       id="g1064"
       transform="matrix(1.9370152,0,0,1.8495443,-464.75257,-529.60639)">
      <path
         style="fill:#f7df1e;fill-opacity:1"
         d="m 491.47386,747.42502 c 10.9165,-1.51834 28.3919,-6.06823 37.8493,-9.85443 9.1012,-3.64359 24.7,-12.68257 34.9935,-20.27752 3.8473,-2.83874 13.09137,-11.26354 20.54227,-18.72178 18.3094,-18.32748 27.3596,-31.88414 35.0886,-52.56045 l 3.3643,-9 0.5,-82.25029 0.5,-82.25028 -76.30497,2.8e-4 -76.3051,2.9e-4 -2.3566,5.32869 c -1.2961,2.93078 -10.0463,21.80954 -19.4449,41.9528 -9.3986,20.14327 -17.0884,37.09536 -17.0884,37.67132 0,0.71563 15.8311,1.04719 50,1.04719 h 50 v 38.42766 38.42766 l -7.3524,4.91756 c -16.3701,10.949 -31.3271,14.73586 -55.1476,13.96246 -16.3286,-0.53015 -26.5294,-2.61805 -42,-8.59655 -37.3333,-14.42715 -66.9536,-47.33057 -77.036,-85.57466 -3.5675,-13.53189 -4.536,-21.32703 -4.5245,-36.41579 0.017,-22.63188 3.9654,-39.80481 13.5552,-58.96153 16.0124,-31.98633 43.0803,-55.16581 77.8452,-66.66237 19.994,-6.61193 22.9438,-6.86069 86.3089,-7.27867 l 57.14887,-0.37696 19.1479,-44.42431 c 10.5314,-24.43338 19.8178,-46.02724 20.6363,-47.98637 l 1.4884,-3.56206 -84.78517,0.36206 c -93.6455,0.3999 -90.8847,0.23277 -118.4256,7.16922 -90.3482,22.75503 -156.1036,97.28674 -169.0146,191.57265 -1.9935,14.55864 -1.696,51.85567 0.5265,66 3.747,23.84551 10.0701,43.92596 20.6252,65.5 33.9568,69.40525 99.701,115.92108 174.5034,123.46592 10.4758,1.05663 33.9306,0.51041 45.162,-1.05174 z"
         id="path506" />
      <path
         style="fill:#f7df1e;fill-opacity:1"
         d="m 549.86196,838.44219 c 41.98957,-3.3362 79.29897,-16.01731 112.94987,-38.39071 35.763,-23.77768 64.4524,-56.76618 83.5246,-96.04064 8.4131,-17.32453 13.0825,-30.1235 17.3636,-47.59327 6.2889,-25.66346 6.1118,-19.89708 6.1118,-198.95795 V 294.51084 h -50.5 -50.5 l -0.019,162.25 c -0.016,135.93966 -0.2546,164.01588 -1.4688,173.1398 -4.2197,31.70707 -18.6727,59.65041 -43.6465,84.38609 -21.2615,21.05875 -47.9405,35.78364 -78.11357,43.11315 l -10.7485,2.61096 v 39.75 c -9e-4,21.8625 0.3585,39.75005 0.7986,39.75005 0.44,0 6.8525,-0.4809 14.25,-1.0687 z"
         id="path504" />
    </g>
  </g>
</svg>
